<svg width="520" height="140" viewBox="0 0 520 140" xmlns="http://www.w3.org/2000/svg">
<!-- "Resolve." wordmark: Inter Bold 84px in color-gray (the site-name
     color) with the hero's shadow-light glow. Glyph paths
     pre-baked with satori so generate-og.mjs needs no font handling; regenerate if the
     wordmark or its styling ever changes. -->
<mask id="satori_om-id"><rect x="0" y="0" width="520" height="140" fill="#fff"/></mask><defs><!-- Filter region hand-tightened (satori emits enormous bounds, which resvg
     rasterizes in full): +/-3x the largest stdDeviation (84) around the glyph
     bbox (~343x62), i.e. >=252 units of padding on every side. -->
<filter id="satori_s-id-0" x="-75%" y="-410%" width="250%" height="920%"><feDropShadow dx="0" dy="0" stdDeviation="42" flood-color="#fafafa" flood-opacity="1" in="SourceGraphic" result="satori_s-id-0-result-0"/><feDropShadow dx="0" dy="0" stdDeviation="84" flood-color="#fafafa" flood-opacity="1" in="SourceGraphic" result="satori_s-id-0-result-1"/><feMerge><feMergeNode in="satori_s-id-0-result-1"/><feMergeNode in="satori_s-id-0-result-0"/></feMerge></filter></defs><g filter="url(#satori_s-id-0)"><g  ><path fill="#a5a5a5" d="M18.0 81L5.5 81L5.5 19.9L29.4 19.9Q36.3 19.9 41.2 22.3Q46.1 24.8 48.7 29.3Q51.2 33.8 51.2 39.8L51.2 39.8Q51.2 45.8 48.6 50.2Q46.0 54.5 41.1 56.9Q36.1 59.2 29.1 59.2L29.1 59.2L12.9 59.2L12.9 49.0L27.1 49.0Q30.9 49.0 33.4 48.0Q35.8 47.0 37.1 44.9Q38.3 42.8 38.3 39.8L38.3 39.8Q38.3 36.7 37.1 34.5Q35.8 32.4 33.4 31.3Q30.9 30.2 27.0 30.2L27.0 30.2L18.0 30.2L18.0 81ZM53.4 81L39.5 81L24.7 53.2L38.2 53.2L53.4 81ZM81.1 81.9L81.1 81.9Q74.1 81.9 69.0 79.0Q63.9 76.2 61.2 70.9Q58.5 65.6 58.5 58.3L58.5 58.3Q58.5 51.2 61.2 45.9Q63.9 40.6 68.9 37.6Q73.8 34.6 80.5 34.6L80.5 34.6Q85.0 34.6 88.9 36.0Q92.8 37.4 95.8 40.3Q98.7 43.2 100.4 47.6Q102.0 51.9 102.0 57.8L102.0 57.8L102.0 61.3L63.5 61.3L63.5 53.6L96.0 53.6L90.3 55.6Q90.3 52.0 89.2 49.4Q88.1 46.8 85.9 45.3Q83.8 43.8 80.6 43.8L80.6 43.8Q77.4 43.8 75.2 45.3Q73.0 46.8 71.8 49.3Q70.7 51.8 70.7 55.1L70.7 55.1L70.7 60.5Q70.7 64.5 72.0 67.2Q73.3 69.9 75.7 71.3Q78.1 72.6 81.3 72.6L81.3 72.6Q83.5 72.6 85.3 72.0Q87.0 71.4 88.3 70.2Q89.5 69.0 90.2 67.2L90.2 67.2L101.3 69.3Q100.2 73.1 97.5 75.9Q94.7 78.8 90.6 80.3Q86.5 81.9 81.1 81.9ZM128.7 81.9L128.7 81.9Q123.1 81.9 118.9 80.3Q114.6 78.7 111.9 75.7Q109.2 72.7 108.4 68.4L108.4 68.4L119.8 66.5Q120.8 69.7 123.0 71.3Q125.3 72.9 129.0 72.9L129.0 72.9Q132.6 72.9 134.6 71.5Q136.6 70.2 136.6 68.2L136.6 68.2Q136.6 66.4 135.2 65.2Q133.7 64.1 130.7 63.4L130.7 63.4L122.8 61.8Q116.2 60.5 112.9 57.2Q109.6 53.9 109.6 48.8L109.6 48.8Q109.6 44.4 112.0 41.2Q114.4 38.0 118.7 36.3Q123.0 34.6 128.9 34.6L128.9 34.6Q134.3 34.6 138.3 36.1Q142.2 37.6 144.7 40.3Q147.2 43.1 148.0 46.8L148.0 46.8L137.1 48.7Q136.4 46.4 134.4 44.9Q132.4 43.4 129.0 43.4L129.0 43.4Q126 43.4 123.9 44.7Q121.9 45.9 121.9 48.1L121.9 48.1Q121.9 49.8 123.2 51.0Q124.6 52.2 127.8 52.8L127.8 52.8L136.0 54.5Q142.7 55.8 145.9 58.9Q149.2 61.9 149.2 66.8L149.2 66.8Q149.2 71.4 146.5 74.7Q143.9 78.1 139.3 80.0Q134.7 81.9 128.7 81.9ZM178.0 81.9L178.0 81.9Q171.1 81.9 166.1 78.9Q161.0 76.0 158.3 70.6Q155.6 65.3 155.6 58.3L155.6 58.3Q155.6 51.1 158.3 45.8Q161.0 40.5 166.1 37.5Q171.1 34.6 178.0 34.6L178.0 34.6Q184.9 34.6 190.0 37.5Q195.0 40.5 197.7 45.8Q200.4 51.1 200.4 58.3L200.4 58.3Q200.4 65.3 197.7 70.6Q195.0 76.0 190.0 78.9Q184.9 81.9 178.0 81.9ZM178.0 72.2L178.0 72.2Q181.3 72.2 183.5 70.4Q185.7 68.6 186.8 65.4Q187.9 62.2 187.9 58.2L187.9 58.2Q187.9 54.2 186.8 51.0Q185.7 47.9 183.5 46.1Q181.3 44.3 178.0 44.3L178.0 44.3Q174.7 44.3 172.5 46.1Q170.3 47.9 169.2 51.0Q168.1 54.2 168.1 58.2L168.1 58.2Q168.1 62.2 169.2 65.4Q170.3 68.6 172.5 70.4Q174.7 72.2 178.0 72.2ZM209.0 19.9L221.3 19.9L221.3 81L209.0 81L209.0 19.9ZM258.7 81L244.7 81L227.8 35.1L240.9 35.1L248.6 58.9Q250.0 63.4 251.0 68.0Q252.1 72.5 253.2 77.4L253.2 77.4L250.6 77.4Q251.6 72.5 252.7 68.0Q253.7 63.4 255.1 58.9L255.1 58.9L262.7 35.1L275.6 35.1L258.7 81ZM302.9 81.9L302.9 81.9Q295.8 81.9 290.8 79.0Q285.7 76.2 282.9 70.9Q280.2 65.6 280.2 58.3L280.2 58.3Q280.2 51.2 282.9 45.9Q285.6 40.6 290.6 37.6Q295.6 34.6 302.2 34.6L302.2 34.6Q306.8 34.6 310.7 36.0Q314.5 37.4 317.5 40.3Q320.5 43.2 322.1 47.6Q323.8 51.9 323.8 57.8L323.8 57.8L323.8 61.3L285.3 61.3L285.3 53.6L317.7 53.6L312.0 55.6Q312.0 52.0 310.9 49.4Q309.8 46.8 307.7 45.3Q305.5 43.8 302.4 43.8L302.4 43.8Q299.2 43.8 296.9 45.3Q294.7 46.8 293.5 49.3Q292.4 51.8 292.4 55.1L292.4 55.1L292.4 60.5Q292.4 64.5 293.7 67.2Q295.1 69.9 297.5 71.3Q299.9 72.6 303.1 72.6L303.1 72.6Q305.2 72.6 307.0 72.0Q308.8 71.4 310.0 70.2Q311.3 69.0 311.9 67.2L311.9 67.2L323.1 69.3Q322.0 73.1 319.2 75.9Q316.5 78.8 312.4 80.3Q308.2 81.9 302.9 81.9ZM341.0 81.8L341.0 81.8Q338.0 81.8 335.9 79.7Q333.9 77.7 333.9 74.7L333.9 74.7Q333.9 71.7 335.9 69.7Q338.0 67.7 341.0 67.7L341.0 67.7Q344.0 67.7 346.0 69.7Q348.1 71.7 348.1 74.7L348.1 74.7Q348.1 77.7 346.0 79.7Q344.0 81.8 341.0 81.8Z "/></g></g>
</svg>
